<?xml version="1.0" encoding="UTF-8" ?>
<svg xmlns="http://www.w3.org/2000/svg" xmlns:xlink="http://www.w3.org/1999/xlink" width="1099pt" height="404pt" viewBox="0.00 0.00 1098.79 404.00">
<g id="graph0" class="graph" transform="scale(1 1) rotate(0) translate(4 400)">
<title>%0</title>
<polygon fill="#ffffff" stroke="transparent" points="-4,4 -4,-400 1094.7853,-400 1094.7853,4 -4,4"/>
<!-- Super Mario Bros -->
<g id="node1" class="node">
<title>Super Mario Bros</title>
<ellipse fill="none" stroke="#000000" cx="263.5157" cy="-378" rx="80.4577" ry="18"/>
<text text-anchor="middle" x="263.5157" y="-373.8" font-family="Times,serif" font-size="14.00" fill="#000000">Super Mario Bros</text>
</g>
<!-- Mario y Luigi -->
<g id="node2" class="node">
<title>Mario y Luigi</title>
<ellipse fill="none" stroke="#000000" cx="126.5157" cy="-306" rx="65.4304" ry="18"/>
<text text-anchor="middle" x="126.5157" y="-301.8" font-family="Times,serif" font-size="14.00" fill="#000000">Mario y Luigi</text>
</g>
<!-- Super Mario Bros&#45;&#45;Mario y Luigi -->
<g id="edge1" class="edge">
<title>Super Mario Bros--Mario y Luigi</title>
<path fill="none" stroke="#000000" d="M231.7408,-361.3008C209.2919,-349.5028 179.3718,-333.7784 157.1758,-322.1134"/>
</g>
<!-- Plataformero 2D -->
<g id="node3" class="node">
<title>Plataformero 2D</title>
<ellipse fill="none" stroke="#000000" cx="400.5157" cy="-306" rx="75.82" ry="18"/>
<text text-anchor="middle" x="400.5157" y="-301.8" font-family="Times,serif" font-size="14.00" fill="#000000">Plataformero 2D</text>
</g>
<!-- Super Mario Bros&#45;&#45;Plataformero 2D -->
<g id="edge2" class="edge">
<title>Super Mario Bros--Plataformero 2D</title>
<path fill="none" stroke="#000000" d="M295.2906,-361.3008C317.4232,-349.669 346.8182,-334.2206 368.9131,-322.6087"/>
</g>
<!-- Colaboración -->
<g id="node6" class="node">
<title>Colaboración</title>
<ellipse fill="none" stroke="#000000" cx="126.5157" cy="-162" rx="66.0531" ry="18"/>
<text text-anchor="middle" x="126.5157" y="-157.8" font-family="Times,serif" font-size="14.00" fill="#000000">Colaboración</text>
</g>
<!-- Mario y Luigi&#45;&#45;Colaboración -->
<g id="edge5" class="edge">
<title>Mario y Luigi--Colaboración</title>
<path fill="none" stroke="#000000" d="M72.5699,-295.6748C48.018,-287.9914 21.2149,-274.7337 6.5157,-252 -2.1719,-238.564 -2.1719,-229.436 6.5157,-216 21.1529,-193.3622 47.7921,-180.1206 72.259,-172.4228"/>
</g>
<!-- Cambiar Entre Personajes -->
<g id="node7" class="node">
<title>Cambiar Entre Personajes</title>
<ellipse fill="none" stroke="#000000" cx="126.5157" cy="-234" rx="111.1519" ry="18"/>
<text text-anchor="middle" x="126.5157" y="-229.8" font-family="Times,serif" font-size="14.00" fill="#000000">Cambiar Entre Personajes</text>
</g>
<!-- Mario y Luigi&#45;&#45;Cambiar Entre Personajes -->
<g id="edge7" class="edge">
<title>Mario y Luigi--Cambiar Entre Personajes</title>
<path fill="none" stroke="#000000" d="M126.5157,-287.8314C126.5157,-277 126.5157,-263.2876 126.5157,-252.4133"/>
</g>
<!-- No Violencia -->
<g id="node4" class="node">
<title>No Violencia</title>
<ellipse fill="none" stroke="#000000" cx="318.5157" cy="-234" rx="62.5807" ry="18"/>
<text text-anchor="middle" x="318.5157" y="-229.8" font-family="Times,serif" font-size="14.00" fill="#000000">No Violencia</text>
</g>
<!-- Plataformero 2D&#45;&#45;No Violencia -->
<g id="edge3" class="edge">
<title>Plataformero 2D--No Violencia</title>
<path fill="none" stroke="#000000" d="M380.6657,-288.5708C367.7733,-277.2506 351.0387,-262.5568 338.1828,-251.2687"/>
</g>
<!-- Juegos de Acción -->
<g id="node5" class="node">
<title>Juegos de Acción</title>
<ellipse fill="none" stroke="#000000" cx="481.5157" cy="-234" rx="82.2276" ry="18"/>
<text text-anchor="middle" x="481.5157" y="-229.8" font-family="Times,serif" font-size="14.00" fill="#000000">Juegos de Acción</text>
</g>
<!-- Plataformero 2D&#45;&#45;Juegos de Acción -->
<g id="edge4" class="edge">
<title>Plataformero 2D--Juegos de Acción</title>
<path fill="none" stroke="#000000" d="M420.1235,-288.5708C432.7651,-277.3339 449.1464,-262.7727 461.8076,-251.5182"/>
</g>
<!-- Plataformero 2D&#45;&#45;Colaboración -->
<g id="edge8" class="edge">
<title>Plataformero 2D--Colaboración</title>
<path fill="none" stroke="#000000" d="M463.3879,-295.9176C526.5353,-283.2052 609.5655,-257.8063 572.5157,-216 547.7172,-188.0179 309.8459,-171.6583 192.0077,-165.2092"/>
</g>
<!-- Cambiar Entre Personajes&#45;&#45;Colaboración -->
<g id="edge6" class="edge">
<title>Cambiar Entre Personajes--Colaboración</title>
<path fill="none" stroke="#000000" d="M126.5157,-215.8314C126.5157,-205 126.5157,-191.2876 126.5157,-180.4133"/>
</g>
<!-- My Little Pony -->
<g id="node8" class="node">
<title>My Little Pony</title>
<ellipse fill="none" stroke="#000000" cx="678.5157" cy="-378" rx="70.1041" ry="18"/>
<text text-anchor="middle" x="678.5157" y="-373.8" font-family="Times,serif" font-size="14.00" fill="#000000">My Little Pony</text>
</g>
<!-- Ponis -->
<g id="node9" class="node">
<title>Ponis</title>
<ellipse fill="none" stroke="#000000" cx="690.5157" cy="-234" rx="32.502" ry="18"/>
<text text-anchor="middle" x="690.5157" y="-229.8" font-family="Times,serif" font-size="14.00" fill="#000000">Ponis</text>
</g>
<!-- My Little Pony&#45;&#45;Ponis -->
<g id="edge9" class="edge">
<title>My Little Pony--Ponis</title>
<path fill="none" stroke="#000000" d="M680.0355,-359.7623C682.3437,-332.0633 686.7073,-279.7005 689.0082,-252.0896"/>
</g>
<!-- Pegasos -->
<g id="node10" class="node">
<title>Pegasos</title>
<ellipse fill="none" stroke="#000000" cx="748.5157" cy="-306" rx="42.2932" ry="18"/>
<text text-anchor="middle" x="748.5157" y="-301.8" font-family="Times,serif" font-size="14.00" fill="#000000">Pegasos</text>
</g>
<!-- My Little Pony&#45;&#45;Pegasos -->
<g id="edge10" class="edge">
<title>My Little Pony--Pegasos</title>
<path fill="none" stroke="#000000" d="M695.819,-360.2022C706.8313,-348.8753 721.0154,-334.2859 731.8934,-323.0972"/>
</g>
<!-- Unicornios -->
<g id="node11" class="node">
<title>Unicornios</title>
<ellipse fill="none" stroke="#000000" cx="629.5157" cy="-162" rx="53.8924" ry="18"/>
<text text-anchor="middle" x="629.5157" y="-157.8" font-family="Times,serif" font-size="14.00" fill="#000000">Unicornios</text>
</g>
<!-- My Little Pony&#45;&#45;Unicornios -->
<g id="edge11" class="edge">
<title>My Little Pony--Unicornios</title>
<path fill="none" stroke="#000000" d="M673.9956,-359.6713C667.9909,-335.1768 657.1378,-290.3952 648.5157,-252 642.9172,-227.0698 636.895,-198.1461 633.1655,-179.9592"/>
</g>
<!-- Ponis&#45;&#45;Unicornios -->
<g id="edge15" class="edge">
<title>Ponis--Unicornios</title>
<path fill="none" stroke="#000000" d="M676.6738,-217.6621C667.0423,-206.2938 654.2138,-191.1519 644.3685,-179.5312"/>
</g>
<!-- Pegasos&#45;&#45;Ponis -->
<g id="edge17" class="edge">
<title>Pegasos--Ponis</title>
<path fill="none" stroke="#000000" d="M734.7705,-288.937C725.3908,-277.2933 713.0348,-261.9547 703.7629,-250.4449"/>
</g>
<!-- Mitología Griega -->
<g id="node17" class="node">
<title>Mitología Griega</title>
<ellipse fill="none" stroke="#000000" cx="760.5157" cy="-18" rx="81.6185" ry="18"/>
<text text-anchor="middle" x="760.5157" y="-13.8" font-family="Times,serif" font-size="14.00" fill="#000000">Mitología Griega</text>
</g>
<!-- Pegasos&#45;&#45;Mitología Griega -->
<g id="edge21" class="edge">
<title>Pegasos--Mitología Griega</title>
<path fill="none" stroke="#000000" d="M789.1255,-300.9258C852.4768,-292.4514 971.3235,-274.1455 1007.5157,-252 1079.2097,-208.1314 1119.5198,-136.4054 1065.5157,-72 1037.3994,-38.4686 921.7613,-25.7467 841.2476,-20.9278"/>
</g>
<!-- Mitología -->
<g id="node16" class="node">
<title>Mitología</title>
<ellipse fill="none" stroke="#000000" cx="760.5157" cy="-90" rx="52.7469" ry="18"/>
<text text-anchor="middle" x="760.5157" y="-85.8" font-family="Times,serif" font-size="14.00" fill="#000000">Mitología</text>
</g>
<!-- Unicornios&#45;&#45;Mitología -->
<g id="edge16" class="edge">
<title>Unicornios--Mitología</title>
<path fill="none" stroke="#000000" d="M657.6184,-146.5542C679.7213,-134.406 710.3684,-117.5618 732.4593,-105.4203"/>
</g>
<!-- Unicornios&#45;&#45;Mitología Griega -->
<g id="edge19" class="edge">
<title>Unicornios--Mitología Griega</title>
<path fill="none" stroke="#000000" d="M641.5183,-144.2577C654.5775,-125.4815 676.5425,-95.3903 698.5157,-72 710.83,-58.8915 726.0418,-45.6052 738.3158,-35.4917"/>
</g>
<!-- Revolución Cientifica -->
<g id="node12" class="node">
<title>Revolución Cientifica</title>
<ellipse fill="none" stroke="#000000" cx="899.5157" cy="-234" rx="99.0349" ry="18"/>
<text text-anchor="middle" x="899.5157" y="-229.8" font-family="Times,serif" font-size="14.00" fill="#000000">Revolución Cientifica</text>
</g>
<!-- Contraste Ciencia&#45;Magia -->
<g id="node13" class="node">
<title>Contraste Ciencia-Magia</title>
<ellipse fill="none" stroke="#000000" cx="809.5157" cy="-162" rx="107.6795" ry="18"/>
<text text-anchor="middle" x="809.5157" y="-157.8" font-family="Times,serif" font-size="14.00" fill="#000000">Contraste Ciencia-Magia</text>
</g>
<!-- Revolución Cientifica&#45;&#45;Contraste Ciencia&#45;Magia -->
<g id="edge12" class="edge">
<title>Revolución Cientifica--Contraste Ciencia-Magia</title>
<path fill="none" stroke="#000000" d="M877.2685,-216.2022C863.4221,-205.1252 845.6757,-190.928 831.8188,-179.8425"/>
</g>
<!-- Reino Unido -->
<g id="node14" class="node">
<title>Reino Unido</title>
<ellipse fill="none" stroke="#000000" cx="995.5157" cy="-162" rx="60.8179" ry="18"/>
<text text-anchor="middle" x="995.5157" y="-157.8" font-family="Times,serif" font-size="14.00" fill="#000000">Reino Unido</text>
</g>
<!-- Revolución Cientifica&#45;&#45;Reino Unido -->
<g id="edge13" class="edge">
<title>Revolución Cientifica--Reino Unido</title>
<path fill="none" stroke="#000000" d="M923.246,-216.2022C938.4596,-204.792 958.0874,-190.0712 973.0477,-178.851"/>
</g>
<!-- Contraste Ciencia&#45;Magia&#45;&#45;Mitología -->
<g id="edge18" class="edge">
<title>Contraste Ciencia-Magia--Mitología</title>
<path fill="none" stroke="#000000" d="M797.1509,-143.8314C789.6662,-132.8334 780.1599,-118.865 772.7067,-107.9134"/>
</g>
<!-- Época Georgiana -->
<g id="node15" class="node">
<title>Época Georgiana</title>
<ellipse fill="none" stroke="#000000" cx="978.5157" cy="-90" rx="77.5511" ry="18"/>
<text text-anchor="middle" x="978.5157" y="-85.8" font-family="Times,serif" font-size="14.00" fill="#000000">Época Georgiana</text>
</g>
<!-- Reino Unido&#45;&#45;Época Georgiana -->
<g id="edge14" class="edge">
<title>Reino Unido--Época Georgiana</title>
<path fill="none" stroke="#000000" d="M991.2258,-143.8314C988.6684,-133 985.4308,-119.2876 982.8632,-108.4133"/>
</g>
<!-- Mitología&#45;&#45;Mitología Griega -->
<g id="edge20" class="edge">
<title>Mitología--Mitología Griega</title>
<path fill="none" stroke="#000000" d="M760.5157,-71.8314C760.5157,-61 760.5157,-47.2876 760.5157,-36.4133"/>
</g>
</g>
</svg>